{
    "asset" : {
        "generator" : "Khronos glTF Blender I/O v1.3.48",
        "version" : "2.0"
    },
    "scene" : 0,
    "scenes" : [
        {
            "name" : "Scene",
            "nodes" : [
                0
            ]
        }
    ],
    "nodes" : [
        {
            "mesh" : 0,
            "name" : "Cube.002"
        }
    ],
    "materials" : [
        {
            "doubleSided" : true,
            "emissiveFactor" : [
                0,
                0,
                0
            ],
            "name" : "Material.005",
            "pbrMetallicRoughness" : {
                "baseColorTexture" : {
                    "index" : 0,
                    "texCoord" : 0
                },
                "metallicFactor" : 0,
                "metallicRoughnessTexture" : {
                    "index" : 1,
                    "texCoord" : 0
                }
            }
        }
    ],
    "meshes" : [
        {
            "name" : "Cube.002",
            "primitives" : [
                {
                    "attributes" : {
                        "POSITION" : 0,
                        "NORMAL" : 1,
                        "TEXCOORD_0" : 2
                    },
                    "indices" : 3,
                    "material" : 0
                }
            ]
        }
    ],
    "textures" : [
        {
            "source" : 0
        },
        {
            "source" : 1
        }
    ],
    "images" : [
        {
            "mimeType" : "image/png",
            "name" : "TexturesCom_Rock_CliffMountain_1K_albedo.tif",
            "uri" : "textures/TexturesCom_Rock_CliffMountain_1K_albedo_tif.png"
        },
        {
            "mimeType" : "image/png",
            "name" : "TexturesCom_Rock_CliffMountain_1K_roughness",
            "uri" : "textures/TexturesCom_Rock_CliffMountain_1K_roughness.png"
        }
    ],
    "accessors" : [
        {
            "bufferView" : 0,
            "componentType" : 5126,
            "count" : 1649,
            "max" : [
                -161.67626953125,
                71.28629302978516,
                70.61256408691406
            ],
            "min" : [
                -248.51373291015625,
                -103.78762817382812,
                -35.91328430175781
            ],
            "type" : "VEC3"
        },
        {
            "bufferView" : 1,
            "componentType" : 5126,
            "count" : 1649,
            "type" : "VEC3"
        },
        {
            "bufferView" : 2,
            "componentType" : 5126,
            "count" : 1649,
            "type" : "VEC2"
        },
        {
            "bufferView" : 3,
            "componentType" : 5123,
            "count" : 9216,
            "type" : "SCALAR"
        }
    ],
    "bufferViews" : [
        {
            "buffer" : 0,
            "byteLength" : 19788,
            "byteOffset" : 0
        },
        {
            "buffer" : 0,
            "byteLength" : 19788,
            "byteOffset" : 19788
        },
        {
            "buffer" : 0,
            "byteLength" : 13192,
            "byteOffset" : 39576
        },
        {
            "buffer" : 0,
            "byteLength" : 18432,
            "byteOffset" : 52768
        }
    ],
    "buffers" : [
        {
            "byteLength" : 71200,
            "uri" : "scene.bin"
        }
    ]
}
