{
    "asset" : {
        "generator" : "Khronos glTF Blender I/O v1.3.48",
        "version" : "2.0"
    },
    "scene" : 0,
    "scenes" : [
        {
            "name" : "Scene",
            "nodes" : [
                0
            ]
        }
    ],
    "nodes" : [
        {
            "mesh" : 0,
            "name" : "Cube",
            "translation" : [
                -0.25953149795532227,
                0.44310247898101807,
                0
            ]
        }
    ],
    "materials" : [
        {
            "doubleSided" : true,
            "emissiveFactor" : [
                0,
                0,
                0
            ],
            "name" : "Material",
            "normalTexture" : {
                "index" : 0,
                "texCoord" : 0
            },
            "pbrMetallicRoughness" : {
                "baseColorTexture" : {
                    "index" : 1,
                    "texCoord" : 0
                },
                "metallicRoughnessTexture" : {
                    "index" : 2,
                    "texCoord" : 0
                }
            }
        },
        {
            "doubleSided" : true,
            "emissiveFactor" : [
                0,
                0,
                0
            ],
            "name" : "Material3",
            "normalTexture" : {
                "index" : 3,
                "texCoord" : 0
            },
            "pbrMetallicRoughness" : {
                "baseColorTexture" : {
                    "index" : 4,
                    "texCoord" : 0
                },
                "metallicRoughnessTexture" : {
                    "index" : 5,
                    "texCoord" : 0
                }
            }
        },
        {
            "doubleSided" : true,
            "emissiveFactor" : [
                0,
                0,
                0
            ],
            "name" : "Material2",
            "normalTexture" : {
                "index" : 6,
                "texCoord" : 0
            },
            "pbrMetallicRoughness" : {
                "baseColorTexture" : {
                    "index" : 7,
                    "texCoord" : 0
                },
                "metallicRoughnessTexture" : {
                    "index" : 8,
                    "texCoord" : 0
                }
            }
        },
        {
            "doubleSided" : true,
            "emissiveFactor" : [
                0,
                0,
                0
            ],
            "name" : "Material.001",
            "normalTexture" : {
                "index" : 9,
                "texCoord" : 0
            },
            "pbrMetallicRoughness" : {
                "baseColorTexture" : {
                    "index" : 10,
                    "texCoord" : 0
                },
                "metallicRoughnessTexture" : {
                    "index" : 11,
                    "texCoord" : 0
                }
            }
        },
        {
            "doubleSided" : true,
            "emissiveFactor" : [
                0,
                0,
                0
            ],
            "name" : "Material.002",
            "normalTexture" : {
                "index" : 12,
                "texCoord" : 0
            },
            "pbrMetallicRoughness" : {
                "baseColorTexture" : {
                    "index" : 13,
                    "texCoord" : 0
                },
                "metallicRoughnessTexture" : {
                    "index" : 14,
                    "texCoord" : 0
                }
            }
        }
    ],
    "meshes" : [
        {
            "name" : "Cube.001",
            "primitives" : [
                {
                    "attributes" : {
                        "POSITION" : 0,
                        "NORMAL" : 1,
                        "TEXCOORD_0" : 2
                    },
                    "indices" : 3,
                    "material" : 0
                },
                {
                    "attributes" : {
                        "POSITION" : 4,
                        "NORMAL" : 5,
                        "TEXCOORD_0" : 6
                    },
                    "indices" : 7,
                    "material" : 1
                },
                {
                    "attributes" : {
                        "POSITION" : 8,
                        "NORMAL" : 9,
                        "TEXCOORD_0" : 10
                    },
                    "indices" : 11,
                    "material" : 2
                },
                {
                    "attributes" : {
                        "POSITION" : 12,
                        "NORMAL" : 13,
                        "TEXCOORD_0" : 14
                    },
                    "indices" : 15,
                    "material" : 3
                },
                {
                    "attributes" : {
                        "POSITION" : 16,
                        "NORMAL" : 17,
                        "TEXCOORD_0" : 18
                    },
                    "indices" : 19,
                    "material" : 4
                }
            ]
        }
    ],
    "textures" : [
        {
            "source" : 0
        },
        {
            "source" : 1
        },
        {
            "source" : 2
        },
        {
            "source" : 3
        },
        {
            "source" : 4
        },
        {
            "source" : 5
        },
        {
            "source" : 6
        },
        {
            "source" : 7
        },
        {
            "source" : 8
        },
        {
            "source" : 9
        },
        {
            "source" : 10
        },
        {
            "source" : 11
        },
        {
            "source" : 12
        },
        {
            "source" : 13
        },
        {
            "source" : 14
        }
    ],
    "images" : [
        {
            "mimeType" : "image/png",
            "name" : "astrovan_Material_Normal",
            "uri" : "textures/astrovan_Material_Normal.png"
        },
        {
            "mimeType" : "image/png",
            "name" : "astrovan_Material_BaseColor",
            "uri" : "textures/astrovan_Material_BaseColor.png"
        },
        {
            "mimeType" : "image/png",
            "name" : "astrovan_Material_Metallic-astrovan_Material_Roughness",
            "uri" : "textures/astrovan_Material_Metallic-astrovan_Material_Roughness.png"
        },
        {
            "mimeType" : "image/png",
            "name" : "astrovan_Material3_Normal",
            "uri" : "textures/astrovan_Material3_Normal.png"
        },
        {
            "mimeType" : "image/png",
            "name" : "astrovan_Material3_BaseColor",
            "uri" : "textures/astrovan_Material3_BaseColor.png"
        },
        {
            "mimeType" : "image/png",
            "name" : "astrovan_Material3_Metallic-astrovan_Material3_Roughness",
            "uri" : "textures/astrovan_Material3_Metallic-astrovan_Material3_Roughness.png"
        },
        {
            "mimeType" : "image/png",
            "name" : "astrovan_Material2_Normal",
            "uri" : "textures/astrovan_Material2_Normal.png"
        },
        {
            "mimeType" : "image/png",
            "name" : "astrovan_Material2_BaseColor",
            "uri" : "textures/astrovan_Material2_BaseColor.png"
        },
        {
            "mimeType" : "image/png",
            "name" : "astrovan_Material2_Metallic-astrovan_Material2_Roughness",
            "uri" : "textures/astrovan_Material2_Metallic-astrovan_Material2_Roughness.png"
        },
        {
            "mimeType" : "image/png",
            "name" : "astrovan_Material.001_Normal",
            "uri" : "textures/astrovan_Material_001_Normal.png"
        },
        {
            "mimeType" : "image/png",
            "name" : "astrovan_Material.001_BaseColor",
            "uri" : "textures/astrovan_Material_001_BaseColor.png"
        },
        {
            "mimeType" : "image/png",
            "name" : "astrovan_Material.001_Metallic-astrovan_Material.001_Roughness",
            "uri" : "textures/astrovan_Material_001_Metallic-astrovan_Material_001_Roughness.png"
        },
        {
            "mimeType" : "image/png",
            "name" : "astrovan_Material.002_Normal",
            "uri" : "textures/astrovan_Material_002_Normal.png"
        },
        {
            "mimeType" : "image/png",
            "name" : "astrovan_Material.002_BaseColor",
            "uri" : "textures/astrovan_Material_002_BaseColor.png"
        },
        {
            "mimeType" : "image/png",
            "name" : "astrovan_Material.002_Metallic-astrovan_Material.002_Roughness",
            "uri" : "textures/astrovan_Material_002_Metallic-astrovan_Material_002_Roughness.png"
        }
    ],
    "accessors" : [
        {
            "bufferView" : 0,
            "componentType" : 5126,
            "count" : 6042,
            "max" : [
                1.5902565717697144,
                0.40954339504241943,
                0.5786293148994446
            ],
            "min" : [
                -1.759049415588379,
                -0.49883750081062317,
                -0.5786293148994446
            ],
            "type" : "VEC3"
        },
        {
            "bufferView" : 1,
            "componentType" : 5126,
            "count" : 6042,
            "type" : "VEC3"
        },
        {
            "bufferView" : 2,
            "componentType" : 5126,
            "count" : 6042,
            "type" : "VEC2"
        },
        {
            "bufferView" : 3,
            "componentType" : 5123,
            "count" : 24612,
            "type" : "SCALAR"
        },
        {
            "bufferView" : 4,
            "componentType" : 5126,
            "count" : 1271,
            "max" : [
                1.623533844947815,
                -0.4240446090698242,
                0.5534005165100098
            ],
            "min" : [
                -1.6890703439712524,
                -0.49942871928215027,
                -0.5534005165100098
            ],
            "type" : "VEC3"
        },
        {
            "bufferView" : 5,
            "componentType" : 5126,
            "count" : 1271,
            "type" : "VEC3"
        },
        {
            "bufferView" : 6,
            "componentType" : 5126,
            "count" : 1271,
            "type" : "VEC2"
        },
        {
            "bufferView" : 7,
            "componentType" : 5123,
            "count" : 4968,
            "type" : "SCALAR"
        },
        {
            "bufferView" : 8,
            "componentType" : 5126,
            "count" : 440,
            "max" : [
                1.5174847841262817,
                0.2977229654788971,
                0.5386431813240051
            ],
            "min" : [
                -1.1147830486297607,
                -0.04278025031089783,
                -0.5386431813240051
            ],
            "type" : "VEC3"
        },
        {
            "bufferView" : 9,
            "componentType" : 5126,
            "count" : 440,
            "type" : "VEC3"
        },
        {
            "bufferView" : 10,
            "componentType" : 5126,
            "count" : 440,
            "type" : "VEC2"
        },
        {
            "bufferView" : 11,
            "componentType" : 5123,
            "count" : 1560,
            "type" : "SCALAR"
        },
        {
            "bufferView" : 12,
            "componentType" : 5126,
            "count" : 1192,
            "max" : [
                1.3107306957244873,
                -0.4065170884132385,
                0.5441712141036987
            ],
            "min" : [
                -0.8050849437713623,
                -0.6154875159263611,
                -0.5441712141036987
            ],
            "type" : "VEC3"
        },
        {
            "bufferView" : 13,
            "componentType" : 5126,
            "count" : 1192,
            "type" : "VEC3"
        },
        {
            "bufferView" : 14,
            "componentType" : 5126,
            "count" : 1192,
            "type" : "VEC2"
        },
        {
            "bufferView" : 15,
            "componentType" : 5123,
            "count" : 4968,
            "type" : "SCALAR"
        },
        {
            "bufferView" : 16,
            "componentType" : 5126,
            "count" : 3642,
            "max" : [
                1.3850517272949219,
                -0.3321961462497711,
                0.5237782001495361
            ],
            "min" : [
                -0.8794058561325073,
                -0.6898084282875061,
                -0.5237782001495361
            ],
            "type" : "VEC3"
        },
        {
            "bufferView" : 17,
            "componentType" : 5126,
            "count" : 3642,
            "type" : "VEC3"
        },
        {
            "bufferView" : 18,
            "componentType" : 5126,
            "count" : 3642,
            "type" : "VEC2"
        },
        {
            "bufferView" : 19,
            "componentType" : 5123,
            "count" : 12264,
            "type" : "SCALAR"
        }
    ],
    "bufferViews" : [
        {
            "buffer" : 0,
            "byteLength" : 72504,
            "byteOffset" : 0
        },
        {
            "buffer" : 0,
            "byteLength" : 72504,
            "byteOffset" : 72504
        },
        {
            "buffer" : 0,
            "byteLength" : 48336,
            "byteOffset" : 145008
        },
        {
            "buffer" : 0,
            "byteLength" : 49224,
            "byteOffset" : 193344
        },
        {
            "buffer" : 0,
            "byteLength" : 15252,
            "byteOffset" : 242568
        },
        {
            "buffer" : 0,
            "byteLength" : 15252,
            "byteOffset" : 257820
        },
        {
            "buffer" : 0,
            "byteLength" : 10168,
            "byteOffset" : 273072
        },
        {
            "buffer" : 0,
            "byteLength" : 9936,
            "byteOffset" : 283240
        },
        {
            "buffer" : 0,
            "byteLength" : 5280,
            "byteOffset" : 293176
        },
        {
            "buffer" : 0,
            "byteLength" : 5280,
            "byteOffset" : 298456
        },
        {
            "buffer" : 0,
            "byteLength" : 3520,
            "byteOffset" : 303736
        },
        {
            "buffer" : 0,
            "byteLength" : 3120,
            "byteOffset" : 307256
        },
        {
            "buffer" : 0,
            "byteLength" : 14304,
            "byteOffset" : 310376
        },
        {
            "buffer" : 0,
            "byteLength" : 14304,
            "byteOffset" : 324680
        },
        {
            "buffer" : 0,
            "byteLength" : 9536,
            "byteOffset" : 338984
        },
        {
            "buffer" : 0,
            "byteLength" : 9936,
            "byteOffset" : 348520
        },
        {
            "buffer" : 0,
            "byteLength" : 43704,
            "byteOffset" : 358456
        },
        {
            "buffer" : 0,
            "byteLength" : 43704,
            "byteOffset" : 402160
        },
        {
            "buffer" : 0,
            "byteLength" : 29136,
            "byteOffset" : 445864
        },
        {
            "buffer" : 0,
            "byteLength" : 24528,
            "byteOffset" : 475000
        }
    ],
    "buffers" : [
        {
            "byteLength" : 499528,
            "uri" : "scene.bin"
        }
    ]
}
