{
    "asset" : {
        "generator" : "Khronos glTF Blender I/O v1.3.48",
        "version" : "2.0"
    },
    "scene" : 0,
    "scenes" : [
        {
            "name" : "Scene",
            "nodes" : [
                0
            ]
        }
    ],
    "nodes" : [
        {
            "mesh" : 0,
            "name" : "Cube.003",
            "scale" : [
                10.938058853149414,
                10.938058853149414,
                10.938058853149414
            ],
            "translation" : [
                125.18228912353516,
                0,
                0
            ]
        }
    ],
    "materials" : [
        {
            "doubleSided" : true,
            "emissiveFactor" : [
                0,
                0,
                0
            ],
            "name" : "Material.001",
            "pbrMetallicRoughness" : {
                "baseColorTexture" : {
                    "index" : 0,
                    "texCoord" : 0
                },
                "metallicFactor" : 0,
                "metallicRoughnessTexture" : {
                    "index" : 1,
                    "texCoord" : 0
                }
            }
        }
    ],
    "meshes" : [
        {
            "name" : "Cube.004",
            "primitives" : [
                {
                    "attributes" : {
                        "POSITION" : 0,
                        "NORMAL" : 1,
                        "TEXCOORD_0" : 2
                    },
                    "indices" : 3,
                    "material" : 0
                }
            ]
        }
    ],
    "textures" : [
        {
            "source" : 0
        },
        {
            "source" : 1
        }
    ],
    "images" : [
        {
            "mimeType" : "image/png",
            "name" : "TexturesCom_Rock_CliffMountain_1K_albedo",
            "uri" : "textures/TexturesCom_Rock_CliffMountain_1K_albedo.png"
        },
        {
            "mimeType" : "image/png",
            "name" : "TexturesCom_Rock_CliffMountain_1K_roughness",
            "uri" : "textures/TexturesCom_Rock_CliffMountain_1K_roughness.png"
        }
    ],
    "accessors" : [
        {
            "bufferView" : 0,
            "componentType" : 5126,
            "count" : 671,
            "max" : [
                2.237783432006836,
                2.8573851585388184,
                2.2815144062042236
            ],
            "min" : [
                -2.201831579208374,
                -2.602245807647705,
                -2.0655760765075684
            ],
            "type" : "VEC3"
        },
        {
            "bufferView" : 1,
            "componentType" : 5126,
            "count" : 671,
            "type" : "VEC3"
        },
        {
            "bufferView" : 2,
            "componentType" : 5126,
            "count" : 671,
            "type" : "VEC2"
        },
        {
            "bufferView" : 3,
            "componentType" : 5123,
            "count" : 3600,
            "type" : "SCALAR"
        }
    ],
    "bufferViews" : [
        {
            "buffer" : 0,
            "byteLength" : 8052,
            "byteOffset" : 0
        },
        {
            "buffer" : 0,
            "byteLength" : 8052,
            "byteOffset" : 8052
        },
        {
            "buffer" : 0,
            "byteLength" : 5368,
            "byteOffset" : 16104
        },
        {
            "buffer" : 0,
            "byteLength" : 7200,
            "byteOffset" : 21472
        }
    ],
    "buffers" : [
        {
            "byteLength" : 28672,
            "uri" : "scene.bin"
        }
    ]
}
