{
    "asset" : {
        "generator" : "Khronos glTF Blender I/O v1.3.48",
        "version" : "2.0"
    },
    "scene" : 0,
    "scenes" : [
        {
            "name" : "Scene",
            "nodes" : [
                0,
                1,
                2,
                3,
                4,
                5,
                6,
                7
            ]
        }
    ],
    "nodes" : [
        {
            "mesh" : 0,
            "name" : "Sphere",
            "translation" : [
                0.494586318731308,
                1.6807819604873657,
                -0.07511341571807861
            ]
        },
        {
            "mesh" : 1,
            "name" : "Sphere.001",
            "translation" : [
                0.494586318731308,
                1.6807819604873657,
                -0.07511341571807861
            ]
        },
        {
            "mesh" : 2,
            "name" : "Sphere.003",
            "translation" : [
                0.494586318731308,
                1.6807819604873657,
                -0.07511341571807861
            ]
        },
        {
            "mesh" : 3,
            "name" : "Cube.002",
            "translation" : [
                0.49458634853363037,
                1.6807819604873657,
                -0.07511341571807861
            ]
        },
        {
            "mesh" : 4,
            "name" : "Cube.001",
            "translation" : [
                0.49458634853363037,
                1.6807819604873657,
                -0.07511341571807861
            ]
        },
        {
            "mesh" : 5,
            "name" : "Plane.002",
            "translation" : [
                0.4945862293243408,
                1.6807819604873657,
                -0.07511341571807861
            ]
        },
        {
            "mesh" : 6,
            "name" : "Plane.003",
            "translation" : [
                0.494586318731308,
                1.6807819604873657,
                -0.07511341571807861
            ]
        },
        {
            "mesh" : 7,
            "name" : "Cylinder",
            "translation" : [
                0.494586318731308,
                1.6807819604873657,
                -0.07511341571807861
            ]
        }
    ],
    "materials" : [
        {
            "doubleSided" : true,
            "emissiveFactor" : [
                0,
                0,
                0
            ],
            "name" : "baloon",
            "pbrMetallicRoughness" : {
                "baseColorTexture" : {
                    "index" : 0,
                    "texCoord" : 0
                },
                "metallicFactor" : 0,
                "roughnessFactor" : 0.5
            }
        },
        {
            "doubleSided" : true,
            "emissiveFactor" : [
                0,
                0,
                0
            ],
            "name" : "WoodLight",
            "pbrMetallicRoughness" : {
                "baseColorTexture" : {
                    "index" : 1,
                    "texCoord" : 0
                },
                "metallicFactor" : 0,
                "metallicRoughnessTexture" : {
                    "index" : 2,
                    "texCoord" : 0
                }
            }
        },
        {
            "doubleSided" : true,
            "emissiveFactor" : [
                0,
                0,
                0
            ],
            "name" : "Wood",
            "pbrMetallicRoughness" : {
                "baseColorTexture" : {
                    "index" : 3,
                    "texCoord" : 0
                },
                "metallicFactor" : 0,
                "roughnessFactor" : 0.5
            }
        },
        {
            "doubleSided" : true,
            "emissiveFactor" : [
                0,
                0,
                0
            ],
            "name" : "WoodBoat2",
            "pbrMetallicRoughness" : {
                "baseColorTexture" : {
                    "index" : 4,
                    "texCoord" : 0
                },
                "metallicFactor" : 0,
                "roughnessFactor" : 0.5
            }
        },
        {
            "doubleSided" : true,
            "emissiveFactor" : [
                0,
                0,
                0
            ],
            "name" : "WoodBoat",
            "pbrMetallicRoughness" : {
                "baseColorTexture" : {
                    "index" : 5,
                    "texCoord" : 0
                },
                "metallicFactor" : 0,
                "roughnessFactor" : 0.5
            }
        },
        {
            "doubleSided" : true,
            "emissiveFactor" : [
                0,
                0,
                0
            ],
            "name" : "Rope",
            "pbrMetallicRoughness" : {
                "baseColorTexture" : {
                    "index" : 6,
                    "texCoord" : 0
                },
                "metallicFactor" : 0,
                "roughnessFactor" : 0.5
            }
        }
    ],
    "meshes" : [
        {
            "name" : "Sphere",
            "primitives" : [
                {
                    "attributes" : {
                        "POSITION" : 0,
                        "NORMAL" : 1,
                        "TEXCOORD_0" : 2
                    },
                    "indices" : 3,
                    "material" : 0
                }
            ]
        },
        {
            "name" : "Sphere.003",
            "primitives" : [
                {
                    "attributes" : {
                        "POSITION" : 4,
                        "NORMAL" : 5,
                        "TEXCOORD_0" : 6
                    },
                    "indices" : 7,
                    "material" : 1
                }
            ]
        },
        {
            "name" : "Sphere.005",
            "primitives" : [
                {
                    "attributes" : {
                        "POSITION" : 8,
                        "NORMAL" : 9,
                        "TEXCOORD_0" : 10
                    },
                    "indices" : 11,
                    "material" : 2
                }
            ]
        },
        {
            "name" : "Cube.002",
            "primitives" : [
                {
                    "attributes" : {
                        "POSITION" : 12,
                        "NORMAL" : 13,
                        "TEXCOORD_0" : 14
                    },
                    "indices" : 15,
                    "material" : 2
                }
            ]
        },
        {
            "name" : "Cube.003",
            "primitives" : [
                {
                    "attributes" : {
                        "POSITION" : 16,
                        "NORMAL" : 17,
                        "TEXCOORD_0" : 18
                    },
                    "indices" : 15,
                    "material" : 2
                }
            ]
        },
        {
            "name" : "Plane.002",
            "primitives" : [
                {
                    "attributes" : {
                        "POSITION" : 19,
                        "NORMAL" : 20,
                        "TEXCOORD_0" : 21
                    },
                    "indices" : 22,
                    "material" : 3
                }
            ]
        },
        {
            "name" : "Plane.003",
            "primitives" : [
                {
                    "attributes" : {
                        "POSITION" : 23,
                        "NORMAL" : 24,
                        "TEXCOORD_0" : 25
                    },
                    "indices" : 26,
                    "material" : 4
                },
                {
                    "attributes" : {
                        "POSITION" : 27,
                        "NORMAL" : 28,
                        "TEXCOORD_0" : 29
                    },
                    "indices" : 30,
                    "material" : 3
                }
            ]
        },
        {
            "name" : "Cylinder",
            "primitives" : [
                {
                    "attributes" : {
                        "POSITION" : 31,
                        "NORMAL" : 32,
                        "TEXCOORD_0" : 33
                    },
                    "indices" : 34,
                    "material" : 5
                }
            ]
        }
    ],
    "textures" : [
        {
            "source" : 0
        },
        {
            "source" : 1
        },
        {
            "source" : 2
        },
        {
            "source" : 3
        },
        {
            "source" : 4
        },
        {
            "source" : 5
        },
        {
            "source" : 6
        }
    ],
    "images" : [
        {
            "mimeType" : "image/png",
            "name" : "TexturesCom_Fabric_Muslin_1K_albedo",
            "uri" : "textures/TexturesCom_Fabric_Muslin_1K_albedo.png"
        },
        {
            "mimeType" : "image/png",
            "name" : "TexturesCom_Wood_Cork_1K_albedo",
            "uri" : "textures/TexturesCom_Wood_Cork_1K_albedo.png"
        },
        {
            "mimeType" : "image/png",
            "name" : "TexturesCom_Wood_Cork_1K_roughness",
            "uri" : "textures/TexturesCom_Wood_Cork_1K_roughness.png"
        },
        {
            "mimeType" : "image/png",
            "name" : "TexturesCom_Wood_Worn3_512_albedo",
            "uri" : "textures/TexturesCom_Wood_Worn3_512_albedo.png"
        },
        {
            "mimeType" : "image/png",
            "name" : "TexturesCom_Wood_Aged_1K_albedo",
            "uri" : "textures/TexturesCom_Wood_Aged_1K_albedo.png"
        },
        {
            "mimeType" : "image/png",
            "name" : "TexturesCom_Wood_PlanksBeamed_1K_albedo",
            "uri" : "textures/TexturesCom_Wood_PlanksBeamed_1K_albedo.png"
        },
        {
            "mimeType" : "image/png",
            "name" : "TexturesCom_Rope_NaturalSisal_512_albedo",
            "uri" : "textures/TexturesCom_Rope_NaturalSisal_512_albedo.png"
        }
    ],
    "accessors" : [
        {
            "bufferView" : 0,
            "componentType" : 5126,
            "count" : 559,
            "max" : [
                2.0792593955993652,
                1.5757306814193726,
                0.7352601885795593
            ],
            "min" : [
                -2.0706980228424072,
                0.10533154010772705,
                -0.7351390719413757
            ],
            "type" : "VEC3"
        },
        {
            "bufferView" : 1,
            "componentType" : 5126,
            "count" : 559,
            "type" : "VEC3"
        },
        {
            "bufferView" : 2,
            "componentType" : 5126,
            "count" : 559,
            "type" : "VEC2"
        },
        {
            "bufferView" : 3,
            "componentType" : 5123,
            "count" : 2880,
            "type" : "SCALAR"
        },
        {
            "bufferView" : 4,
            "componentType" : 5126,
            "count" : 1314,
            "max" : [
                2.0470407009124756,
                1.4603770971298218,
                0.7439171075820923
            ],
            "min" : [
                -2.0384795665740967,
                0.22068488597869873,
                -0.7437959909439087
            ],
            "type" : "VEC3"
        },
        {
            "bufferView" : 5,
            "componentType" : 5126,
            "count" : 1314,
            "type" : "VEC3"
        },
        {
            "bufferView" : 6,
            "componentType" : 5126,
            "count" : 1314,
            "type" : "VEC2"
        },
        {
            "bufferView" : 7,
            "componentType" : 5123,
            "count" : 6408,
            "type" : "SCALAR"
        },
        {
            "bufferView" : 8,
            "componentType" : 5126,
            "count" : 2145,
            "max" : [
                1.5030838251113892,
                1.604948878288269,
                0.7644779682159424
            ],
            "min" : [
                -1.4945224523544312,
                0.07611358165740967,
                -0.7643572688102722
            ],
            "type" : "VEC3"
        },
        {
            "bufferView" : 9,
            "componentType" : 5126,
            "count" : 2145,
            "type" : "VEC3"
        },
        {
            "bufferView" : 10,
            "componentType" : 5126,
            "count" : 2145,
            "type" : "VEC2"
        },
        {
            "bufferView" : 11,
            "componentType" : 5123,
            "count" : 11520,
            "type" : "SCALAR"
        },
        {
            "bufferView" : 12,
            "componentType" : 5126,
            "count" : 222,
            "max" : [
                2.2074241638183594,
                1.5488120317459106,
                0.023433204740285873
            ],
            "min" : [
                1.5662957429885864,
                0.13225066661834717,
                -0.023312360048294067
            ],
            "type" : "VEC3"
        },
        {
            "bufferView" : 13,
            "componentType" : 5126,
            "count" : 222,
            "type" : "VEC3"
        },
        {
            "bufferView" : 14,
            "componentType" : 5126,
            "count" : 222,
            "type" : "VEC2"
        },
        {
            "bufferView" : 15,
            "componentType" : 5123,
            "count" : 864,
            "type" : "SCALAR"
        },
        {
            "bufferView" : 16,
            "componentType" : 5126,
            "count" : 222,
            "max" : [
                2.2074241638183594,
                0.8639041185379028,
                0.7083413600921631
            ],
            "min" : [
                1.5662957429885864,
                0.8171581029891968,
                -0.7082203030586243
            ],
            "type" : "VEC3"
        },
        {
            "bufferView" : 17,
            "componentType" : 5126,
            "count" : 222,
            "type" : "VEC3"
        },
        {
            "bufferView" : 18,
            "componentType" : 5126,
            "count" : 222,
            "type" : "VEC2"
        },
        {
            "bufferView" : 19,
            "componentType" : 5126,
            "count" : 284,
            "max" : [
                -1.9566709995269775,
                -0.668810248374939,
                0.13661563396453857
            ],
            "min" : [
                -2.653109550476074,
                -1.0160541534423828,
                -0.13649478554725647
            ],
            "type" : "VEC3"
        },
        {
            "bufferView" : 20,
            "componentType" : 5126,
            "count" : 284,
            "type" : "VEC3"
        },
        {
            "bufferView" : 21,
            "componentType" : 5126,
            "count" : 284,
            "type" : "VEC2"
        },
        {
            "bufferView" : 22,
            "componentType" : 5123,
            "count" : 1248,
            "type" : "SCALAR"
        },
        {
            "bufferView" : 23,
            "componentType" : 5126,
            "count" : 1858,
            "max" : [
                1.6750375032424927,
                -0.6850992441177368,
                0.6065073013305664
            ],
            "min" : [
                -1.98292076587677,
                -1.5864338874816895,
                -0.6063864827156067
            ],
            "type" : "VEC3"
        },
        {
            "bufferView" : 24,
            "componentType" : 5126,
            "count" : 1858,
            "type" : "VEC3"
        },
        {
            "bufferView" : 25,
            "componentType" : 5126,
            "count" : 1858,
            "type" : "VEC2"
        },
        {
            "bufferView" : 26,
            "componentType" : 5123,
            "count" : 9804,
            "type" : "SCALAR"
        },
        {
            "bufferView" : 27,
            "componentType" : 5126,
            "count" : 578,
            "max" : [
                1.710595965385437,
                -0.5675351619720459,
                0.6420819163322449
            ],
            "min" : [
                -1.9795068502426147,
                -0.9961426258087158,
                -0.6419610977172852
            ],
            "type" : "VEC3"
        },
        {
            "bufferView" : 28,
            "componentType" : 5126,
            "count" : 578,
            "type" : "VEC3"
        },
        {
            "bufferView" : 29,
            "componentType" : 5126,
            "count" : 578,
            "type" : "VEC2"
        },
        {
            "bufferView" : 30,
            "componentType" : 5123,
            "count" : 2892,
            "type" : "SCALAR"
        },
        {
            "bufferView" : 31,
            "componentType" : 5126,
            "count" : 396,
            "max" : [
                0.8138748407363892,
                0.8652622699737549,
                0.7586463689804077
            ],
            "min" : [
                -0.8049396276473999,
                -0.8966872692108154,
                -0.7556077241897583
            ],
            "type" : "VEC3"
        },
        {
            "bufferView" : 32,
            "componentType" : 5126,
            "count" : 396,
            "type" : "VEC3"
        },
        {
            "bufferView" : 33,
            "componentType" : 5126,
            "count" : 396,
            "type" : "VEC2"
        },
        {
            "bufferView" : 34,
            "componentType" : 5123,
            "count" : 1080,
            "type" : "SCALAR"
        }
    ],
    "bufferViews" : [
        {
            "buffer" : 0,
            "byteLength" : 6708,
            "byteOffset" : 0
        },
        {
            "buffer" : 0,
            "byteLength" : 6708,
            "byteOffset" : 6708
        },
        {
            "buffer" : 0,
            "byteLength" : 4472,
            "byteOffset" : 13416
        },
        {
            "buffer" : 0,
            "byteLength" : 5760,
            "byteOffset" : 17888
        },
        {
            "buffer" : 0,
            "byteLength" : 15768,
            "byteOffset" : 23648
        },
        {
            "buffer" : 0,
            "byteLength" : 15768,
            "byteOffset" : 39416
        },
        {
            "buffer" : 0,
            "byteLength" : 10512,
            "byteOffset" : 55184
        },
        {
            "buffer" : 0,
            "byteLength" : 12816,
            "byteOffset" : 65696
        },
        {
            "buffer" : 0,
            "byteLength" : 25740,
            "byteOffset" : 78512
        },
        {
            "buffer" : 0,
            "byteLength" : 25740,
            "byteOffset" : 104252
        },
        {
            "buffer" : 0,
            "byteLength" : 17160,
            "byteOffset" : 129992
        },
        {
            "buffer" : 0,
            "byteLength" : 23040,
            "byteOffset" : 147152
        },
        {
            "buffer" : 0,
            "byteLength" : 2664,
            "byteOffset" : 170192
        },
        {
            "buffer" : 0,
            "byteLength" : 2664,
            "byteOffset" : 172856
        },
        {
            "buffer" : 0,
            "byteLength" : 1776,
            "byteOffset" : 175520
        },
        {
            "buffer" : 0,
            "byteLength" : 1728,
            "byteOffset" : 177296
        },
        {
            "buffer" : 0,
            "byteLength" : 2664,
            "byteOffset" : 179024
        },
        {
            "buffer" : 0,
            "byteLength" : 2664,
            "byteOffset" : 181688
        },
        {
            "buffer" : 0,
            "byteLength" : 1776,
            "byteOffset" : 184352
        },
        {
            "buffer" : 0,
            "byteLength" : 3408,
            "byteOffset" : 186128
        },
        {
            "buffer" : 0,
            "byteLength" : 3408,
            "byteOffset" : 189536
        },
        {
            "buffer" : 0,
            "byteLength" : 2272,
            "byteOffset" : 192944
        },
        {
            "buffer" : 0,
            "byteLength" : 2496,
            "byteOffset" : 195216
        },
        {
            "buffer" : 0,
            "byteLength" : 22296,
            "byteOffset" : 197712
        },
        {
            "buffer" : 0,
            "byteLength" : 22296,
            "byteOffset" : 220008
        },
        {
            "buffer" : 0,
            "byteLength" : 14864,
            "byteOffset" : 242304
        },
        {
            "buffer" : 0,
            "byteLength" : 19608,
            "byteOffset" : 257168
        },
        {
            "buffer" : 0,
            "byteLength" : 6936,
            "byteOffset" : 276776
        },
        {
            "buffer" : 0,
            "byteLength" : 6936,
            "byteOffset" : 283712
        },
        {
            "buffer" : 0,
            "byteLength" : 4624,
            "byteOffset" : 290648
        },
        {
            "buffer" : 0,
            "byteLength" : 5784,
            "byteOffset" : 295272
        },
        {
            "buffer" : 0,
            "byteLength" : 4752,
            "byteOffset" : 301056
        },
        {
            "buffer" : 0,
            "byteLength" : 4752,
            "byteOffset" : 305808
        },
        {
            "buffer" : 0,
            "byteLength" : 3168,
            "byteOffset" : 310560
        },
        {
            "buffer" : 0,
            "byteLength" : 2160,
            "byteOffset" : 313728
        }
    ],
    "buffers" : [
        {
            "byteLength" : 315888,
            "uri" : "scene.bin"
        }
    ]
}
